<svg width="472" height="305" fill="none" xmlns="http://www.w3.org/2000/svg">
  <path fill-rule="evenodd" clip-rule="evenodd" d="M87.059 156.53v47.192H47.794l39.265-47.192ZM7.462 237.19H86.97v31.698h43.796V237.19h20.876v-33.822h-20.876v-98.989H84.838L0 205.138l7.462 32.052ZM221.667 160.437c-6.732 7.762-11.604 16.846-15.147 26.99-3.897 10.143-5.669 21.433-5.669 32.634v.706c0 11.202 1.772 22.139 5.315 32.282 3.543 10.496 8.415 19.316 15.146 26.99 6.378 7.762 14.084 13.671 23.65 18.258 9.124 4.234 19.753 6.703 31.356 6.703 11.958 0 22.233-2.469 31.711-7.056 9.123-4.586 17.272-10.496 24.004-18.258 6.731-7.762 11.603-16.494 15.146-26.99 3.543-10.143 5.315-21.08 5.315-32.635v-.352c0-11.555-1.772-22.492-5.315-32.635-3.543-10.143-8.415-19.316-15.146-26.637a66.615 66.615 0 0 0-23.65-18.258c-9.124-4.587-19.753-6.703-31.356-6.703-11.604 0-22.233 2.116-31.71 6.703-9.124 4.498-17.273 10.496-23.65 18.258Zm42.693 18.258c3.543-2.117 7.795-3.176 11.958-3.176 4.606 0 8.769 1.059 12.667 3.528 3.543 2.117 6.731 5.293 9.477 9.085 2.48 3.881 4.606 8.732 6.023 14.024 1.418 5.645 2.481 11.555 2.481 17.905v.706c0 6.351-.709 12.26-2.126 17.552-1.417 5.645-3.543 10.144-6.023 14.024-2.835 3.881-6.024 7.057-9.478 9.085-3.897 2.117-7.795 3.528-12.312 3.528-4.606 0-8.769-1.411-12.312-3.528-3.898-2.117-7.086-5.292-9.832-9.085-2.48-3.88-4.606-8.732-6.023-14.024-1.418-5.645-2.126-11.554-2.126-18.258v-.352c0-6.704.708-12.613 2.126-17.905 1.062-5.645 3.188-10.144 6.023-14.025 2.391-3.88 5.58-7.056 9.477-9.084ZM407.402 51.89v46.904H368.75l38.652-46.905Zm-78.628 80.168h78.628v31.505h43.859v-31.505H472V98.442h-20.739V.057h-45.623l-84.277 100.145 7.413 31.856Z" fill="#73839A"/>
</svg>
