<svg width="50" height="50" viewBox="0 0 50 50" fill="none" xmlns="http://www.w3.org/2000/svg">
<circle cx="25" cy="25" r="25" fill="white"/>
<path fill-rule="evenodd" clip-rule="evenodd" d="M11 25C11 17.268 17.268 11 25 11C32.732 11 39 17.268 39 25C39 32.732 32.732 39 25 39H13.8C12.2536 39 11 37.7464 11 36.2V25ZM19.4 23.6C19.4 22.8268 20.0268 22.2 20.8 22.2H29.2C29.9732 22.2 30.6 22.8268 30.6 23.6C30.6 24.3732 29.9732 25 29.2 25H20.8C20.0268 25 19.4 24.3732 19.4 23.6ZM20.8 27.8C20.0268 27.8 19.4 28.4268 19.4 29.2C19.4 29.9732 20.0268 30.6 20.8 30.6H25C25.7732 30.6 26.4 29.9732 26.4 29.2C26.4 28.4268 25.7732 27.8 25 27.8H20.8Z" fill="#A3E4FF"/>
</svg>
