<svg width="167" height="54" viewBox="0 0 167 54" fill="none" xmlns="http://www.w3.org/2000/svg">
<path d="M2.484 18.296V44H8.136V33.38H18.9V28.988H8.136V23.048H20.556V18.296H2.484ZM24.9038 18.296V44H30.5558V18.296H24.9038ZM36.601 18.296V44H54.781V39.248H42.253V18.296H36.601ZM106.739 34.064L110.087 24.632H110.159L113.399 34.064H106.739ZM107.279 18.296L97.5588 44H103.247L105.263 38.276H114.875L116.819 44H122.687L113.075 18.296H107.279ZM128.367 23.048V44H134.019V23.048H141.723V18.296H120.663V23.048H128.367ZM145.767 18.296V44H165.279V39.248H151.419V32.948H163.875V28.556H151.419V23.048H164.991V18.296H145.767Z" fill="#394C5D"/>
<path d="M59.5729 12.584V44H66.0409V21.956H66.1289L73.8289 44H79.1529L86.8529 21.736H86.9409V44H93.4089V12.584H83.6849L76.7329 34.188H76.6449L69.2969 12.584H59.5729Z" fill="#A3E4FF"/>
</svg>
