<svg width="20" height="20" viewBox="0 0 20 20" fill="none" xmlns="http://www.w3.org/2000/svg">
<path d="M2.56264 2.43736C2.11109 2.88891 2.11111 3.621 2.56264 4.07253L8.49014 10L2.56267 15.9275C2.11113 16.379 2.11111 17.1111 2.56266 17.5627C3.01422 18.0142 3.7463 18.0142 4.19783 17.5627L10.1253 11.6352L16.0528 17.5626C16.5043 18.0142 17.2364 18.0142 17.6879 17.5626C18.1395 17.1111 18.1394 16.379 17.6879 15.9275L11.7605 10L17.6879 4.07255C18.1395 3.62102 18.1395 2.88893 17.6879 2.43738C17.2364 1.98583 16.5043 1.98586 16.0528 2.43739L10.1253 8.36486L4.1978 2.43736C3.74627 1.98583 3.01419 1.98581 2.56264 2.43736Z" fill="#FF6B6B"/>
</svg>
