<svg width="39" height="40" viewBox="0 0 39 40" fill="none" xmlns="http://www.w3.org/2000/svg">
<path d="M31.7631 30.374L25.4579 24.0688C27.0502 22.1114 27.8308 19.6176 27.6386 17.1017C27.4465 14.5857 26.2963 12.2394 24.4253 10.5465C22.5542 8.85354 20.1049 7.94306 17.5823 8.00276C15.0597 8.06246 12.6562 9.08779 10.8673 10.8673C9.08779 12.6562 8.06246 15.0597 8.00276 17.5823C7.94306 20.1049 8.85354 22.5542 10.5465 24.4253C12.2394 26.2963 14.5857 27.4465 17.1017 27.6386C19.6176 27.8308 22.1114 27.0502 24.0688 25.4579L30.374 31.7631C30.5625 31.9245 30.8049 32.0088 31.0528 31.9993C31.3008 31.9897 31.536 31.8869 31.7114 31.7114C31.8869 31.536 31.9897 31.3008 31.9993 31.0528C32.0088 30.8049 31.9245 30.5625 31.7631 30.374ZM12.2564 23.4087C11.1537 22.3067 10.4025 20.9024 10.098 19.3734C9.79348 17.8444 9.94926 16.2594 10.5456 14.8189C11.142 13.3785 12.1522 12.1473 13.4484 11.281C14.7446 10.4148 16.2686 9.95239 17.8277 9.95239C19.3867 9.95239 20.9107 10.4148 22.2069 11.281C23.5031 12.1473 24.5133 13.3785 25.1097 14.8189C25.7061 16.2594 25.8619 17.8444 25.5573 19.3734C25.2528 20.9024 24.5016 22.3067 23.3989 23.4087C22.6704 24.146 21.8029 24.7313 20.8465 25.1308C19.8902 25.5302 18.8641 25.7359 17.8277 25.7359C16.7912 25.7359 15.7651 25.5302 14.8088 25.1308C13.8525 24.7313 12.9849 24.146 12.2564 23.4087Z" fill="#829BB0"/>
</svg>
