<svg width="20" height="20" viewBox="0 0 20 20" fill="none" xmlns="http://www.w3.org/2000/svg">
<path fill-rule="evenodd" clip-rule="evenodd" d="M0 5.64139C0 4.73488 0.706919 4 1.57895 4C2.30418 4 2.91398 4.50782 3.09977 5.19908C5.14917 12.3138 14.8453 12.3157 16.8987 5.2047C17.0827 4.51054 17.6939 4 18.4211 4C19.2931 4 20 4.73488 20 5.64139C20 5.81276 19.9746 5.97898 19.927 6.13563C19.5372 7.49156 18.9514 8.67276 18.2192 9.67573L19.2293 10.7258C19.8459 11.3668 19.8459 12.4061 19.2293 13.0471C18.6127 13.6881 17.613 13.6881 16.9963 13.0471L15.9324 11.9411C15.376 12.3376 14.7867 12.671 14.1753 12.9417L14.4309 13.9334C14.6566 14.809 14.1567 15.709 13.3144 15.9437C12.4721 16.1783 11.6063 15.6587 11.3806 14.783L11.1168 13.7594C10.3748 13.8393 9.62524 13.8393 8.88323 13.7594L8.61938 14.783C8.39368 15.6587 7.52788 16.1783 6.68557 15.9437C5.84325 15.709 5.34339 14.809 5.56908 13.9334L5.8247 12.9417C5.21339 12.671 4.62419 12.3376 4.06779 11.9411L3.00392 13.0471C2.3873 13.6881 1.38757 13.6881 0.770949 13.0471C0.154332 12.4061 0.154332 11.3668 0.770949 10.7258L1.78099 9.67581C1.05 8.67448 0.464897 7.49551 0.0750407 6.14236C0.0261789 5.98376 0 5.81523 0 5.64139Z" fill="#18C8FF"/>
</svg>
