<?xml version="1.0" standalone="no"?>
<!DOCTYPE svg PUBLIC "-//W3C//DTD SVG 1.1//EN" "http://www.w3.org/Graphics/SVG/1.1/DTD/svg11.dtd" >
<svg xmlns="http://www.w3.org/2000/svg">
<metadata>Generated by IcoMoon</metadata>
<defs>
<font id="icomoon" horiz-adv-x="1024">
<font-face units-per-em="1024" ascent="960" descent="-64" />
<missing-glyph horiz-adv-x="1024" />
<glyph unicode="&#x20;" horiz-adv-x="512" d="" />
<glyph unicode="&#xe900;" glyph-name="Coming-Soon" d="M512 910.452c25.541 0 46.245-20.705 46.245-46.245h138.735c0 25.54 20.705 46.245 46.245 46.245s46.245-20.705 46.245-46.245c102.159 0 184.981-82.818 184.981-184.981v-0.189c-1.523 0.125-3.065 0.189-4.625 0.189h-915.654c-1.559 0-3.101-0.064-4.625-0.189v0.189c0 102.162 82.818 184.981 184.981 184.981 0 25.54 20.705 46.245 46.245 46.245s46.245-20.705 46.245-46.245h138.735c0 25.54 20.705 46.245 46.245 46.245zM49.548 586.92v-416.395c0-102.162 82.818-184.981 184.981-184.981h554.942c102.159 0 184.981 82.818 184.981 184.981v416.395c-1.523-0.126-3.065-0.188-4.625-0.188h-915.654c-1.559 0-3.101 0.063-4.625 0.188z" />
<glyph unicode="&#xe901;" glyph-name="Favorite" d="M458.25 911.726c23.996 41.61 83.504 41.61 107.5 0l139.083-241.202 270.080-59.076c46.592-10.192 64.983-67.362 33.219-103.27l-184.125-208.145 27.839-277.712c4.803-47.91-43.343-83.244-86.968-63.826l-252.877 112.561-252.877-112.561c-43.624-19.418-91.77 15.916-86.968 63.826l27.837 277.712-184.123 208.145c-31.763 35.908-13.373 93.078 33.219 103.27l270.081 59.076 139.081 241.202z" />
<glyph unicode="&#xe902;" glyph-name="Friends" d="M384 891.733c-127.246 0-230.4-101.131-230.4-225.882s103.154-225.882 230.4-225.882c127.246 0 230.4 101.13 230.4 225.882s-103.154 225.882-230.4 225.882zM665.6 590.558c0 83.167 68.768 150.587 153.6 150.587s153.6-67.421 153.6-150.587c0-83.169-68.768-150.589-153.6-150.589s-153.6 67.42-153.6 150.589zM768.041 389.762h102.359c84.832 0 153.6-67.424 153.6-150.589v-75.295c0-41.585-34.386-75.295-76.8-75.295h-76.8v100.407c0 82.091-40.202 154.979-102.359 200.772zM0 188.989c0 110.889 91.692 200.783 204.8 200.783h358.4c113.108 0 204.8-89.894 204.8-200.783v-75.295c0-41.585-34.386-75.295-76.8-75.295h-614.4c-42.415 0-76.8 33.71-76.8 75.295v75.295z" />
<glyph unicode="&#xe903;" glyph-name="left-arrow" d="M7.838 473.846c-0.446-0.66-0.828-1.35-1.236-2.030-0.372-0.62-0.764-1.228-1.104-1.872-0.372-0.698-0.692-1.418-1.028-2.132-0.314-0.664-0.642-1.316-0.928-1.996-0.288-0.698-0.522-1.412-0.776-2.12-0.258-0.724-0.536-1.436-0.76-2.178-0.214-0.716-0.376-1.442-0.558-2.17-0.186-0.748-0.398-1.486-0.55-2.25-0.168-0.844-0.266-1.698-0.388-2.55-0.094-0.652-0.218-1.29-0.286-1.952-0.3-3.060-0.3-6.14 0-9.2 0.068-0.66 0.192-1.3 0.286-1.952 0.122-0.85 0.22-1.706 0.388-2.55 0.152-0.764 0.36-1.498 0.55-2.25 0.184-0.724 0.342-1.452 0.558-2.17 0.224-0.738 0.502-1.452 0.76-2.178 0.254-0.708 0.488-1.422 0.776-2.12 0.286-0.68 0.614-1.332 0.928-1.996 0.336-0.71 0.654-1.43 1.028-2.128 0.342-0.642 0.732-1.25 1.104-1.872 0.406-0.68 0.788-1.368 1.236-2.030 0.468-0.702 0.986-1.36 1.49-2.030 0.41-0.544 0.786-1.098 1.216-1.626 0.978-1.192 2.004-2.336 3.096-3.422l232.72-232.72c9.088-9.088 21.002-13.634 32.91-13.634 11.912 0 23.826 4.542 32.91 13.634 18.178 18.178 18.178 47.648 0 65.824l-153.272 153.272h818.544c25.706 0 46.546 20.84 46.546 46.546s-20.84 46.546-46.546 46.546h-818.54l153.272 153.272c18.178 18.178 18.178 47.648 0 65.824-18.174 18.178-47.648 18.178-65.824 0l-232.72-232.712c-1.092-1.086-2.12-2.232-3.096-3.422-0.432-0.528-0.806-1.082-1.216-1.626-0.504-0.67-1.022-1.328-1.49-2.030z" />
<glyph unicode="&#xe904;" glyph-name="next-right-arrow" d="M1016.498 466.090l-289.622 289.642c-10.002 10.002-26.198 10.002-36.198 0-10.002-10-10.002-26.198 0-36.198l245.932-245.932h-911.009c-14.148 0-25.6-11.452-25.6-25.6s11.452-25.6 25.6-25.6h910.991l-245.932-245.934c-10.002-10-10.002-26.198 0-36.198 10.018-10.002 26.198-10.002 36.216 0l289.624 289.624c10 10 10 26.196-0.002 36.196z" />
<glyph unicode="&#xe905;" glyph-name="Log-Out" d="M585.144 886.857c0 40.395-32.748 73.143-73.144 73.143s-73.144-32.747-73.144-73.143v-487.62c0-40.393 32.748-73.141 73.144-73.141s73.144 32.748 73.144 73.141v487.62zM309.826 752.806c33.637 22.366 42.778 67.767 20.412 101.406s-67.767 42.777-101.406 20.411c-137.774-91.603-228.832-248.464-228.832-426.623 0-282.771 229.23-512 512-512s512 229.229 512 512c0 178.159-91.057 335.020-228.833 426.623-33.638 22.366-79.039 13.227-101.403-20.411-22.368-33.639-13.227-79.040 20.412-101.406 98.727-65.642 163.54-177.669 163.54-304.806 0-201.977-163.738-365.715-365.715-365.715-201.979 0-365.714 163.738-365.714 365.715 0 127.136 64.813 239.164 163.54 304.806z" />
<glyph unicode="&#xe906;" glyph-name="Main-Page" d="M102.4 925.867c-56.554 0-102.4-47.544-102.4-106.193v-743.349c0-58.648 45.846-106.192 102.4-106.192h819.2c56.556 0 102.4 47.544 102.4 106.192v743.349c0 58.649-45.844 106.193-102.4 106.193h-819.2zM339.199 626.956c4.96 43.654 48.828 69.99 87.816 52.645 25.805-11.48 80.288-37.253 149.303-78.574 69.055-41.346 117.839-77.411 140.305-94.833 33.864-26.255 34.010-78.752 0.007-105.11-22.354-17.329-70.758-53.060-140.367-94.737-69.581-41.66-123.607-67.263-149.268-78.681-39.055-17.381-82.842 9.066-87.793 52.634-3.291 28.952-8.993 90.969-8.993 173.339 0 82.35 5.7 144.357 8.991 173.317z" />
<glyph unicode="&#xe907;" glyph-name="moon" d="M512.010 850.286c9.697 0 19 3.853 25.861 10.712 6.856 6.859 10.711 16.161 10.711 25.86v36.571c0 9.699-3.855 19.001-10.711 25.86-6.861 6.858-16.164 10.712-25.861 10.712-9.701 0-19.003-3.853-25.861-10.712s-10.712-16.161-10.712-25.86v-36.571c0-9.699 3.853-19.001 10.712-25.86s16.16-10.712 25.861-10.712zM512.010 45.711c-9.701 0-19.003-3.85-25.861-10.711-6.859-6.856-10.712-16.159-10.712-25.861v-36.567c0-9.702 3.853-19.005 10.712-25.861 6.858-6.861 16.16-10.711 25.861-10.711 9.697 0 19 3.85 25.861 10.711 6.856 6.856 10.711 16.159 10.711 25.861v36.567c0 9.702-3.855 19.005-10.711 25.861-6.861 6.861-16.164 10.711-25.861 10.711zM987.428 484.562h-36.567c-9.702 0-19.005-3.853-25.861-10.712-6.861-6.858-10.711-16.16-10.711-25.861 0-9.697 3.85-19 10.711-25.861 6.856-6.856 16.159-10.711 25.861-10.711h36.567c9.702 0 19.005 3.855 25.861 10.711 6.861 6.861 10.711 16.164 10.711 25.861 0 9.701-3.85 19.003-10.711 25.861-6.856 6.859-16.159 10.712-25.861 10.712zM73.143 484.562h-36.571c-9.699 0-19.001-3.853-25.86-10.712s-10.712-16.16-10.712-25.861c0-9.697 3.853-19 10.712-25.861 6.858-6.856 16.161-10.711 25.86-10.711h36.571c9.699 0 19.001 3.855 25.86 10.711 6.858 6.861 10.712 16.164 10.712 25.861 0 9.701-3.853 19.003-10.712 25.861s-16.161 10.712-25.86 10.712zM822.308 810.070l-25.856-25.856c-3.492-3.374-6.277-7.409-8.197-11.871-1.915-4.462-2.924-9.261-2.964-14.117-0.046-4.856 0.881-9.672 2.719-14.166 1.843-4.495 4.557-8.578 7.992-12.012 3.43-3.434 7.516-6.15 12.012-7.988 4.49-1.839 9.308-2.764 14.162-2.722 4.859 0.042 9.656 1.051 14.121 2.968 4.46 1.916 8.494 4.703 11.868 8.196l25.892 25.82c3.4 3.398 6.093 7.432 7.931 11.871 1.843 4.439 2.785 9.198 2.785 14.003s-0.942 9.564-2.785 14.003c-1.838 4.44-4.531 8.474-7.931 11.871-3.395 3.398-7.429 6.093-11.868 7.932s-9.201 2.786-14.003 2.786c-4.808 0-9.564-0.947-14.003-2.786s-8.474-4.534-11.873-7.932zM175.822 163.543l-25.892-25.856c-3.398-3.395-6.093-7.429-7.932-11.868s-2.786-9.201-2.786-14.003c0-4.808 0.947-9.564 2.786-14.003s4.534-8.474 7.932-11.873c6.862-6.861 16.169-10.716 25.874-10.716 4.805 0 9.564 0.947 14.003 2.785s8.474 4.536 11.871 7.931l25.856 25.856c3.398 3.4 6.094 7.429 7.934 11.868 1.84 4.434 2.787 9.19 2.789 13.993 0.002 4.808-0.943 9.564-2.779 14.003-1.837 4.434-4.53 8.468-7.925 11.868s-7.427 6.093-11.864 7.931c-4.438 1.843-9.193 2.79-13.997 2.79-9.701 0.005-19.007-3.845-25.869-10.706zM848.164 163.548c-6.897 6.661-16.133 10.348-25.723 10.26-9.59-0.082-18.76-3.927-25.544-10.706-6.779-6.784-10.624-15.954-10.706-25.544-0.087-9.59 3.599-18.826 10.26-25.723l25.856-25.892c6.866-6.866 16.169-10.721 25.876-10.721 9.702 0 19.011 3.855 25.871 10.721 6.866 6.861 10.721 16.169 10.721 25.871 0 9.708-3.855 19.011-10.721 25.876l-25.892 25.856zM175.822 732.466c6.898-6.662 16.136-10.348 25.724-10.265s18.762 3.93 25.542 10.711c6.781 6.78 10.627 15.953 10.711 25.542s-3.603 18.827-10.265 25.724l-25.856 25.892c-6.862 6.862-16.169 10.718-25.874 10.718s-19.012-3.855-25.874-10.718c-6.862-6.862-10.718-16.169-10.718-25.874s3.855-19.012 10.718-25.874l25.892-25.856zM830.162 393.759c-4.716 4.654-10.614 7.941-17.055 9.508s-13.189 1.352-19.517-0.62c-24.54-7.583-50.089-11.382-75.776-11.264-69.596 0.067-136.32 27.74-185.533 76.947-49.215 49.208-76.898 115.929-76.976 185.524-0.090 25.676 3.733 51.215 11.337 75.739 1.985 6.336 2.208 13.092 0.645 19.545s-4.854 12.359-9.518 17.083c-4.665 4.725-10.528 8.091-16.96 9.736s-13.191 1.509-19.552-0.394c-55.516-16.788-105.734-47.678-145.754-89.658s-68.478-93.614-82.596-149.869c-14.118-56.254-13.416-115.21 2.039-171.11s45.135-106.844 86.145-147.855c41.010-41.016 91.949-70.702 147.85-86.159 55.901-15.462 114.854-16.169 171.108-2.053 56.259 14.111 107.894 42.563 149.878 82.58s72.878 90.23 89.672 145.746c1.905 6.38 2.033 13.153 0.369 19.599s-5.053 12.314-9.805 16.973zM518.461 191.995c-57.356 0.005-113.132 18.806-158.792 53.519s-78.691 83.43-94.039 138.696c-15.347 55.265-12.166 114.040 9.058 167.327s59.32 98.153 108.461 127.735c-0.609-8.412-0.914-16.945-0.914-25.601 0.106-88.984 35.505-174.293 98.43-237.211 62.925-62.92 148.24-98.309 237.22-98.406 8.525 0 17.044 0.333 25.6 0.952-23.496-38.666-56.525-70.651-95.923-92.887-39.404-22.241-83.855-33.992-129.101-34.125z" />
<glyph unicode="&#xe908;" d="M1024 448c0-282.77-229.23-512-512-512s-512 229.23-512 512c0 282.77 229.23 512 512 512s512-229.23 512-512z" />
<glyph unicode="&#xe909;" d="M379.853 604.813c0 71.627 59.277 129.907 132.143 129.907s132.151-58.28 132.151-129.907c0-71.629-59.286-129.901-132.151-129.901s-132.143 58.272-132.143 129.901zM511.996 441.582c-161.473 0-286.716-94.435-286.716-175.679 0-91.951 137.8-104.622 286.716-104.622s286.724 12.671 286.724 104.622c0 81.244-125.243 175.679-286.724 175.679z" />
<glyph unicode="&#xe90a;" glyph-name="Settings" d="M804.826 850.414c0 41.671-33.778 75.453-75.452 75.453-41.67 0-75.452-33.781-75.452-75.453v-25.151h-578.47c-41.671 0-75.453-33.781-75.453-75.452s33.781-75.453 75.453-75.453h578.47v-25.151c0-41.671 33.782-75.453 75.452-75.453 41.673 0 75.452 33.782 75.452 75.453v25.151h75.455c41.67 0 75.452 33.781 75.452 75.453s-33.782 75.452-75.452 75.452h-75.455v25.151zM75.453 523.452c-41.671 0-75.453-33.782-75.453-75.452s33.781-75.452 75.453-75.452h75.452v-25.153c0-41.67 33.781-75.452 75.453-75.452s75.452 33.782 75.452 75.452v25.153h578.471c41.67 0 75.452 33.782 75.452 75.452s-33.782 75.452-75.452 75.452h-578.471v25.153c0 41.67-33.781 75.452-75.452 75.452s-75.453-33.782-75.453-75.452v-25.153h-75.452zM0 146.19c0 41.67 33.781 75.452 75.453 75.452h578.47v25.153c0 41.67 33.782 75.452 75.452 75.452 41.673 0 75.452-33.782 75.452-75.452v-25.153h75.455c41.67 0 75.452-33.782 75.452-75.452s-33.782-75.452-75.452-75.452h-75.455v-25.153c0-41.67-33.778-75.452-75.452-75.452-41.67 0-75.452 33.782-75.452 75.452v25.153h-578.47c-41.671 0-75.453 33.782-75.453 75.452z" />
<glyph unicode="&#xe90b;" glyph-name="sun" d="M460.802 908.8c0 28.277 22.923 51.2 51.198 51.2 28.278 0 51.2-22.923 51.2-51.2v-51.201c0-28.277-22.922-51.2-51.2-51.2-28.275 0-51.198 22.923-51.198 51.2v51.201zM460.802 38.395c0 28.278 22.923 51.2 51.198 51.2 28.278 0 51.2-22.922 51.2-51.2v-51.2c0-28.278-22.922-51.2-51.2-51.2-28.275 0-51.198 22.922-51.198 51.2v51.2zM0 448c0-28.278 22.923-51.2 51.2-51.2h51.201c28.277 0 51.2 22.922 51.2 51.2 0 28.275-22.923 51.198-51.2 51.198h-51.201c-28.277 0-51.2-22.923-51.2-51.198zM921.605 396.8c-28.278 0-51.2 22.922-51.2 51.2 0 28.275 22.922 51.198 51.2 51.198h51.2c28.278 0 51.2-22.923 51.2-51.198 0-28.278-22.922-51.2-51.2-51.2h-51.2zM222.369 810.041c-19.995 19.995-52.413 19.995-72.408 0s-19.995-52.413 0-72.408l36.204-36.204c19.995-19.995 52.413-19.995 72.408 0s19.995 52.413 0 72.408l-36.204 36.204zM765.43 122.163c-19.994 19.994-19.994 52.413 0 72.407 19.999 19.994 52.413 19.994 72.412 0l36.204-36.204c19.994-19.999 19.994-52.413 0-72.407-19.994-19.999-52.413-19.999-72.407 0l-36.209 36.204zM149.959 158.367c-19.995-19.999-19.995-52.413 0-72.412 19.995-19.994 52.413-19.994 72.408 0l36.204 36.204c19.995 19.999 19.995 52.413 0 72.412-19.995 19.994-52.413 19.994-72.408 0l-36.204-36.204zM837.837 701.428c-19.994-19.995-52.413-19.995-72.407 0s-19.994 52.413 0 72.408l36.204 36.204c19.999 19.995 52.413 19.995 72.407 0 19.999-19.995 19.999-52.413 0-72.408l-36.204-36.204zM512 755.199c-169.66 0-307.199-137.539-307.199-307.199 0-169.667 137.539-307.205 307.199-307.205 169.667 0 307.205 137.539 307.205 307.205 0 169.66-137.539 307.199-307.205 307.199z" />
<glyph unicode="&#xe90c;" glyph-name="add-plus" d="M981.334 490.666h-426.668v426.668c0 23.564-19.102 42.666-42.666 42.666s-42.666-19.102-42.666-42.666v-426.666h-426.668c-23.564-0.002-42.666-19.104-42.666-42.668s19.102-42.666 42.666-42.666h426.666v-426.666c0-23.564 19.102-42.666 42.666-42.666s42.666 19.102 42.666 42.666v426.666h426.666c23.564 0 42.666 19.102 42.666 42.666s-19.098 42.666-42.662 42.666z" />
<glyph unicode="&#xe90d;" glyph-name="warning" d="M512 755.2c28.277 0 51.2-22.923 51.2-51.2v-307.2c0-28.277-22.923-51.2-51.2-51.2s-51.2 22.923-51.2 51.2v307.2c0 28.277 22.923 51.2 51.2 51.2zM512 192c28.277 0 51.2 22.925 51.2 51.2s-22.923 51.2-51.2 51.2c-28.277 0-51.2-22.925-51.2-51.2s22.923-51.2 51.2-51.2zM0 448c0 282.77 229.23 512 512 512s512-229.23 512-512c0-282.771-229.229-512-512-512s-512 229.229-512 512zM512 857.6c-226.216 0-409.6-183.384-409.6-409.6 0-226.214 183.384-409.6 409.6-409.6 226.214 0 409.6 183.386 409.6 409.6 0 226.216-183.386 409.6-409.6 409.6z" />
<glyph unicode="&#xe90e;" glyph-name="Watch-Later" d="M16.516 663.962c0 44.916 35.027 81.328 78.234 81.328 35.934 0 66.149-25.162 75.354-59.413 101.545-352.523 581.974-352.615 683.717-0.278 9.117 34.395 39.398 59.691 75.429 59.691 43.206 0 78.234-36.412 78.234-81.328 0-8.491-1.262-16.727-3.617-24.489-19.314-67.183-48.339-125.709-84.619-175.406l50.050-52.029c30.552-31.761 30.552-83.255 0-115.015-30.555-31.761-80.090-31.761-110.642 0l-52.716 54.801c-27.572-19.644-56.769-36.17-87.060-49.581l12.665-49.135c11.181-43.385-13.586-87.981-55.322-99.605-41.733-11.624-84.632 14.121-95.817 57.509l-13.071 50.718c-36.768-3.957-73.903-3.957-110.671 0.003l-13.071-50.721c-11.185-43.388-54.084-69.133-95.817-57.509-41.737 11.624-66.505 56.221-55.322 99.605l12.666 49.139c-30.29 13.411-59.483 29.931-87.052 49.575l-52.713-54.797c-30.553-31.761-80.088-31.761-110.64 0s-30.552 83.255 0 115.015l50.046 52.026c-36.22 49.614-65.21 108.029-84.527 175.076-2.421 7.858-3.718 16.209-3.718 24.822z" />
<glyph unicode="&#xe90f;" glyph-name="right-arrow" d="M1023.492 454.55c-0.122 0.854-0.22 1.704-0.388 2.55-0.152 0.764-0.36 1.498-0.55 2.25-0.184 0.724-0.342 1.452-0.558 2.17-0.224 0.738-0.502 1.452-0.76 2.178-0.254 0.708-0.488 1.422-0.776 2.12-0.286 0.68-0.614 1.332-0.928 1.996-0.336 0.71-0.654 1.43-1.028 2.128-0.342 0.642-0.732 1.248-1.104 1.872-0.406 0.68-0.788 1.368-1.232 2.030-0.468 0.702-0.986 1.36-1.49 2.030-0.41 0.544-0.786 1.098-1.216 1.63-0.978 1.188-2.004 2.334-3.096 3.42l-232.72 232.726c-18.172 18.178-47.644 18.178-65.824 0-18.178-18.178-18.178-47.648 0-65.824l153.268-153.278h-818.544c-25.706-0.006-46.546-20.846-46.546-46.552s20.84-46.546 46.546-46.546h818.544l-153.272-153.268c-18.178-18.178-18.178-47.648 0-65.826 9.088-9.088 21.002-13.634 32.914-13.634s23.826 4.542 32.91 13.634l232.72 232.72c1.092 1.086 2.12 2.232 3.096 3.422 0.432 0.528 0.806 1.086 1.216 1.626 0.502 0.67 1.020 1.328 1.49 2.030 0.446 0.66 0.828 1.35 1.232 2.030 0.372 0.624 0.764 1.228 1.104 1.872 0.372 0.702 0.692 1.418 1.028 2.132 0.314 0.664 0.642 1.316 0.928 1.996 0.288 0.698 0.522 1.412 0.776 2.12 0.258 0.724 0.536 1.436 0.76 2.178 0.214 0.716 0.376 1.442 0.558 2.17 0.19 0.748 0.398 1.486 0.55 2.25 0.168 0.844 0.266 1.698 0.388 2.55 0.094 0.652 0.218 1.294 0.286 1.952 0.3 3.060 0.3 6.14 0 9.2-0.066 0.652-0.19 1.294-0.282 1.946z" />
<glyph unicode="&#xe910;" glyph-name="search" d="M1011.094 9.345l-293.801 294.010c57.921 69.463 92.757 158.233 92.757 255.187 0 221.19-181.527 401.038-404.815 401.038s-405.235-180.058-405.235-401.248 181.527-401.038 404.815-401.038c94.856 0 182.156 32.528 251.409 86.881l294.85-294.85c17.208-17.208 42.811-17.208 60.019 0s17.208 42.811 0 60.019zM86.042 558.333c0 173.762 143.123 314.996 318.774 314.996s318.774-141.234 318.774-314.996-143.123-314.996-318.774-314.996-318.774 141.444-318.774 314.996z" />
<glyph unicode="&#xe911;" d="M43.699 391.706l71.142 71.142 227.226-227.251 567.091 567.091 71.142-71.142-638.234-638.234z" />
<glyph unicode="&#xe912;" d="M909.158 784.589l53.043-53.043-620.109-620.134-280.294 280.294 53.043 53.043 227.226-227.226 567.091 567.066zM909.158 820.787l-567.066-567.091-227.226 227.226-89.267-89.216 316.493-316.493 656.307 656.333-89.242 89.242z" />
<glyph unicode="&#xe914;" horiz-adv-x="5248" d="M15.488 758.528v-822.528h180.864v339.84h344.448v140.544h-344.448v190.080h397.44v152.064h-578.304zM732.922 758.528v-822.528h180.864v822.528h-180.864zM1107.232 758.528v-822.528h581.76v152.064h-400.896v670.464h-180.864zM3351.648 253.952l107.136 301.824h2.304l103.68-301.824h-213.12zM3368.928 758.528l-311.046-822.528h182.022l64.512 183.168h307.584l62.208-183.168h187.776l-307.584 822.528h-185.472zM4043.744 606.464v-670.464h180.864v670.464h246.528v152.064h-673.92v-152.064h246.528zM4600.544 758.528v-822.528h624.384v152.064h-443.52v201.6h398.592v140.544h-398.592v176.256h434.304v152.064h-615.168z" />
<glyph unicode="&#xe915;" horiz-adv-x="5248" d="M1842.333 941.312v-1005.312h206.976v705.408h2.816l246.4-705.408h170.368l246.4 712.448h2.816v-712.448h206.976v1005.312h-311.168l-222.464-691.328h-2.816l-235.136 691.328h-311.168z" />
<glyph unicode="&#xe916;" glyph-name="moonLight" d="M512.010 850.286c9.697 0 19 3.853 25.861 10.712 6.856 6.859 10.711 16.161 10.711 25.86v36.571c0 9.699-3.855 19.001-10.711 25.86-6.861 6.858-16.164 10.712-25.861 10.712-9.701 0-19.003-3.853-25.861-10.712s-10.712-16.161-10.712-25.86v-36.571c0-9.699 3.853-19.001 10.712-25.86s16.16-10.712 25.861-10.712zM512.010 45.711c-9.701 0-19.003-3.85-25.861-10.711-6.859-6.856-10.712-16.159-10.712-25.861v-36.567c0-9.702 3.853-19.005 10.712-25.861 6.858-6.861 16.16-10.711 25.861-10.711 9.697 0 19 3.85 25.861 10.711 6.856 6.856 10.711 16.159 10.711 25.861v36.567c0 9.702-3.855 19.005-10.711 25.861-6.861 6.861-16.164 10.711-25.861 10.711zM987.428 484.562h-36.567c-9.702 0-19.005-3.853-25.861-10.712-6.861-6.858-10.711-16.16-10.711-25.861 0-9.697 3.85-19 10.711-25.861 6.856-6.856 16.159-10.711 25.861-10.711h36.567c9.702 0 19.005 3.855 25.861 10.711 6.861 6.861 10.711 16.164 10.711 25.861 0 9.701-3.85 19.003-10.711 25.861-6.856 6.859-16.159 10.712-25.861 10.712zM73.143 484.562h-36.571c-9.699 0-19.001-3.853-25.86-10.712s-10.712-16.16-10.712-25.861c0-9.697 3.853-19 10.712-25.861 6.858-6.856 16.161-10.711 25.86-10.711h36.571c9.699 0 19.001 3.855 25.86 10.711 6.858 6.861 10.712 16.164 10.712 25.861 0 9.701-3.853 19.003-10.712 25.861s-16.161 10.712-25.86 10.712zM822.308 810.070l-25.856-25.856c-3.492-3.374-6.277-7.409-8.197-11.871-1.915-4.462-2.924-9.261-2.964-14.117-0.046-4.856 0.881-9.672 2.719-14.166 1.843-4.495 4.557-8.578 7.992-12.012 3.43-3.434 7.516-6.15 12.012-7.988 4.49-1.839 9.308-2.764 14.162-2.722 4.859 0.042 9.656 1.051 14.121 2.968 4.46 1.916 8.494 4.703 11.868 8.196l25.892 25.82c3.4 3.398 6.093 7.432 7.931 11.871 1.843 4.439 2.785 9.198 2.785 14.003s-0.942 9.564-2.785 14.003c-1.838 4.44-4.531 8.474-7.931 11.871-3.395 3.398-7.429 6.093-11.868 7.932s-9.201 2.786-14.003 2.786c-4.808 0-9.564-0.947-14.003-2.786s-8.474-4.534-11.873-7.932zM175.822 163.543l-25.892-25.856c-3.398-3.395-6.093-7.429-7.932-11.868s-2.786-9.201-2.786-14.003c0-4.808 0.947-9.564 2.786-14.003s4.534-8.474 7.932-11.873c6.862-6.861 16.169-10.716 25.874-10.716 4.805 0 9.564 0.947 14.003 2.785s8.474 4.536 11.871 7.931l25.856 25.856c3.398 3.4 6.094 7.429 7.934 11.868 1.84 4.434 2.787 9.19 2.789 13.993 0.002 4.808-0.943 9.564-2.779 14.003-1.837 4.434-4.53 8.468-7.925 11.868s-7.427 6.093-11.864 7.931c-4.438 1.843-9.193 2.79-13.997 2.79-9.701 0.005-19.007-3.845-25.869-10.706zM848.164 163.548c-6.897 6.661-16.133 10.348-25.723 10.26-9.59-0.082-18.76-3.927-25.544-10.706-6.779-6.784-10.624-15.954-10.706-25.544-0.087-9.59 3.599-18.826 10.26-25.723l25.856-25.892c6.866-6.866 16.169-10.721 25.876-10.721 9.702 0 19.011 3.855 25.871 10.721 6.866 6.861 10.721 16.169 10.721 25.871 0 9.708-3.855 19.011-10.721 25.876l-25.892 25.856zM175.822 732.466c6.898-6.662 16.136-10.348 25.724-10.265s18.762 3.93 25.542 10.711c6.781 6.78 10.627 15.953 10.711 25.542s-3.603 18.827-10.265 25.724l-25.856 25.892c-6.862 6.862-16.169 10.718-25.874 10.718s-19.012-3.855-25.874-10.718c-6.862-6.862-10.718-16.169-10.718-25.874s3.855-19.012 10.718-25.874l25.892-25.856zM830.162 393.759c-4.716 4.654-10.614 7.941-17.055 9.508s-13.189 1.352-19.517-0.62c-24.54-7.583-50.089-11.382-75.776-11.264-69.596 0.067-136.32 27.74-185.533 76.947-49.215 49.208-76.898 115.929-76.976 185.524-0.090 25.676 3.733 51.215 11.337 75.739 1.985 6.336 2.208 13.092 0.645 19.545s-4.854 12.359-9.518 17.083c-4.665 4.725-10.528 8.091-16.96 9.736s-13.191 1.509-19.552-0.394c-55.516-16.788-105.734-47.678-145.754-89.658s-68.478-93.614-82.596-149.869c-14.118-56.254-13.416-115.21 2.039-171.11s45.135-106.844 86.145-147.855c41.010-41.016 91.949-70.702 147.85-86.159 55.901-15.462 114.854-16.169 171.108-2.053 56.259 14.111 107.894 42.563 149.878 82.58s72.878 90.23 89.672 145.746c1.905 6.38 2.033 13.153 0.369 19.599s-5.053 12.314-9.805 16.973zM518.461 191.995c-57.356 0.005-113.132 18.806-158.792 53.519s-78.691 83.43-94.039 138.696c-15.347 55.265-12.166 114.040 9.058 167.327s59.32 98.153 108.461 127.735c-0.609-8.412-0.914-16.945-0.914-25.601 0.106-88.984 35.505-174.293 98.43-237.211 62.925-62.92 148.24-98.309 237.22-98.406 8.525 0 17.044 0.333 25.6 0.952-23.496-38.666-56.525-70.651-95.923-92.887-39.404-22.241-83.855-33.992-129.101-34.125z" />
<glyph unicode="&#xe917;" glyph-name="notification" horiz-adv-x="983" d="M163.84 816.64c-45.243 0-81.92-36.677-81.92-81.92v-573.44c0-45.244 36.677-81.92 81.92-81.92h655.36c45.244 0 81.92 36.676 81.92 81.92v573.44c0 45.243-36.676 81.92-81.92 81.92h-655.36zM737.28 734.72h81.92v-81.92h-81.92v81.92zM737.28 570.88v-81.92h81.92v81.92h-81.92zM737.28 325.12v81.92h81.92v-81.92h-81.92zM737.28 243.2v-81.92h81.92v81.92h-81.92zM245.76 734.72h-81.92v-81.92h81.92v81.92zM163.84 488.96v81.92h81.92v-81.92h-81.92zM163.84 407.040v-81.92h81.92v81.92h-81.92zM163.84 161.28v81.92h81.92v-81.92h-81.92z" />
<glyph unicode="&#xe918;" glyph-name="sunDark" d="M460.802 908.8c0 28.277 22.923 51.2 51.198 51.2 28.278 0 51.2-22.923 51.2-51.2v-51.201c0-28.277-22.922-51.2-51.2-51.2-28.275 0-51.198 22.923-51.198 51.2v51.201zM460.802 38.395c0 28.278 22.923 51.2 51.198 51.2 28.278 0 51.2-22.922 51.2-51.2v-51.2c0-28.278-22.922-51.2-51.2-51.2-28.275 0-51.198 22.922-51.198 51.2v51.2zM0 448c0-28.278 22.923-51.2 51.2-51.2h51.201c28.277 0 51.2 22.922 51.2 51.2 0 28.275-22.923 51.198-51.2 51.198h-51.201c-28.277 0-51.2-22.923-51.2-51.198zM921.605 396.8c-28.278 0-51.2 22.922-51.2 51.2 0 28.275 22.922 51.198 51.2 51.198h51.2c28.278 0 51.2-22.923 51.2-51.198 0-28.278-22.922-51.2-51.2-51.2h-51.2zM222.369 810.041c-19.995 19.995-52.413 19.995-72.408 0s-19.995-52.413 0-72.408l36.204-36.204c19.995-19.995 52.413-19.995 72.408 0s19.995 52.413 0 72.408l-36.204 36.204zM765.43 122.163c-19.994 19.994-19.994 52.413 0 72.407 19.999 19.994 52.413 19.994 72.412 0l36.204-36.204c19.994-19.999 19.994-52.413 0-72.407-19.994-19.999-52.413-19.999-72.407 0l-36.209 36.204zM149.959 158.367c-19.995-19.999-19.995-52.413 0-72.412 19.995-19.994 52.413-19.994 72.408 0l36.204 36.204c19.995 19.999 19.995 52.413 0 72.412-19.995 19.994-52.413 19.994-72.408 0l-36.204-36.204zM837.837 701.428c-19.994-19.995-52.413-19.995-72.407 0s-19.994 52.413 0 72.408l36.204 36.204c19.999 19.995 52.413 19.995 72.407 0 19.999-19.995 19.999-52.413 0-72.408l-36.204-36.204zM512 755.199c-169.66 0-307.199-137.539-307.199-307.199 0-169.667 137.539-307.205 307.199-307.205 169.667 0 307.205 137.539 307.205 307.205 0 169.66-137.539 307.199-307.205 307.199z" />
<glyph unicode="&#xe919;" glyph-name="warning_line" horiz-adv-x="1088" d="M518.547 755.2c28.277 0 51.201-22.923 51.201-51.2v-307.2c0-28.277-22.924-51.2-51.201-51.2s-51.199 22.923-51.199 51.2v307.2c0 28.277 22.923 51.2 51.199 51.2zM518.547 192c28.277 0 51.201 22.925 51.201 51.2s-22.924 51.2-51.201 51.2c-28.276 0-51.199-22.925-51.199-51.2s22.923-51.2 51.199-51.2zM6.547 448c0 282.77 229.23 512 512 512 282.772 0 512.001-229.23 512.001-512s-229.229-512-512.001-512c-282.769 0-512 229.229-512 512zM518.547 857.6c-226.216 0-409.6-183.384-409.6-409.6 0-226.214 183.384-409.6 409.6-409.6s409.601 183.386 409.601 409.6c0 226.216-183.386 409.6-409.601 409.6z" />
<glyph unicode="&#xe91c;" glyph-name="arrows_double_left" d="M334.592 448l198.272 201.12c12.512 12.608 12.512 33.088 0 45.696s-32.768 12.608-45.248 0l-220.768-223.968c-12-12.128-12.064-33.536 0-45.728l220.8-223.968c12.48-12.608 32.768-12.608 45.248 0 12.512 12.608 12.512 33.088 0 45.696l-198.304 201.152zM558.592 448l198.272 201.12c12.512 12.608 12.512 33.088 0 45.696s-32.768 12.608-45.248 0l-220.768-223.968c-12-12.128-12.064-33.536 0-45.728l220.768-223.968c12.512-12.608 32.768-12.608 45.248 0 12.512 12.608 12.512 33.088 0 45.696l-198.272 201.152z" />
<glyph unicode="&#xe91d;" glyph-name="arrows_double" d="M757.184 470.848l-220.8 223.968c-12.48 12.608-32.768 12.608-45.248 0-12.512-12.608-12.512-33.088 0-45.696l198.272-201.12-198.272-201.12c-12.512-12.608-12.512-33.088 0-45.696s32.768-12.608 45.248 0l220.768 223.968c12.064 12.128 12.096 33.536 0.032 45.696zM533.184 470.848l-220.768 223.968c-12.512 12.608-32.768 12.608-45.248 0-12.512-12.608-12.512-33.088 0-45.696l198.24-201.12-198.272-201.12c-12.512-12.608-12.512-33.088 0-45.696s32.768-12.608 45.248 0l220.768 223.968c12.064 12.128 12.096 33.536 0.032 45.696z" />
<glyph unicode="&#xe91e;" glyph-name="email_icon" horiz-adv-x="1231" d="M1230.692 839.786c0 66.393-53.821 120.214-120.214 120.214h-990.264c-66.393 0-120.214-53.821-120.214-120.214v-783.572c0-66.393 53.821-120.214 120.214-120.214h990.264c66.393 0 120.214 53.821 120.214 120.214v783.572zM120.858 863.932h990.563c13.257 0 23.93-10.573 23.93-23.832v-1.043l-502.236-502.29c-6.126-6.126-13.252-7.041-16.971-7.041s-10.869 0.916-16.996 7.041l-502.353 502.358v0.975c0 13.259 10.805 23.832 24.062 23.832zM1111.421 32.068h-990.563c-13.257 0-24.062 10.978-24.062 24.236v646.814l434.364-434.356c22.706-22.705 52.899-35.208 85.008-35.208 32.114 0.002 62.246 12.508 84.951 35.212l434.233 434.284v-646.747c0-13.258-10.673-24.236-23.93-24.236z" />
<glyph unicode="&#xe91f;" glyph-name="like_icon" d="M896 441.6c0 51.2-40 78.4-96 78.4h-161.6c11.2 43.2 17.6 84.8 17.6 120 0 139.2-38.4 168-72 168-22.4 0-38.4-1.6-60.8-16-6.4-3.2-9.6-9.6-11.2-16l-24-129.6c-25.6-68.8-91.2-128-144-168v-342.4c17.6 0 40-9.6 60.8-20.8 25.6-12.8 52.8-25.6 83.2-25.6h228.8c48 0 83.2 38.4 83.2 72 0 6.4 0 12.8-1.6 17.6 30.4 11.2 49.6 36.8 49.6 65.6 0 14.4-3.2 27.2-8 36.8 17.6 12.8 36.8 33.6 36.8 59.2 0 12.8-6.4 28.8-16 40 20.8 16 35.2 38.4 35.2 60.8v0zM846.4 441.6c0-30.4-32-33.6-36.8-48-4.8-16 19.2-22.4 19.2-51.2 0-30.4-36.8-30.4-41.6-44.8-6.4-17.6 11.2-24 11.2-52.8 0-1.6 0-3.2 0-4.8-4.8-24-41.6-25.6-48-35.2-6.4-11.2 1.6-17.6 1.6-43.2 0-14.4-16-24-35.2-24h-228.8c-17.6 0-40 9.6-60.8 20.8-19.2 9.6-38.4 19.2-59.2 24v254.4c59.2 44.8 136 113.6 166.4 196.8 0 1.6 0 3.2 1.6 3.2l22.4 120c8 3.2 14.4 3.2 27.2 3.2 4.8 0 24-28.8 24-120 0-35.2-6.4-75.2-19.2-120h-6.4c-12.8 0-24-11.2-24-24s11.2-24 24-24h216c24 0 46.4-11.2 46.4-30.4v0zM320 88h-144c-27.2 0-48 20.8-48 48v336c0 27.2 20.8 48 48 48h144c27.2 0 48-20.8 48-48v-336c0-27.2-20.8-48-48-48v0zM176 472v-336h144v336h-144z" />
<glyph unicode="&#xe920;" glyph-name="lock_icon" d="M800-32h-576c-53.019 0-96 42.981-96 96v0 352c0 53.019 42.981 96 96 96v0h576c53.019 0 96-42.981 96-96v0-352c0-53.019-42.981-96-96-96v0zM224 448c-17.673 0-32-14.327-32-32v0-352c0-17.673 14.327-32 32-32v0h576c17.673 0 32 14.327 32 32v0 352c0 17.673-14.327 32-32 32v0zM768 448h-512c-17.673 0-32 14.327-32 32v0 192c0 141.385 114.615 256 256 256v0h64c141.385 0 256-114.615 256-256v0-192c0-17.673-14.327-32-32-32v0zM288 512h448v160c0 106.039-85.961 192-192 192v0h-64c-106.039 0-192-85.961-192-192v0zM512 224c-35.346 0-64 28.654-64 64s28.654 64 64 64c35.346 0 64-28.654 64-64v0c0-35.346-28.654-64-64-64v0zM480 256h64v-128h-64v128z" />
<glyph unicode="&#xe921;" glyph-name="view_icon" d="M704 448c0-106.039-85.961-192-192-192s-192 85.961-192 192c0 106.039 85.961 192 192 192s192-85.961 192-192zM512 768c-320 0-512-318.016-512-318.016s192-321.984 512-321.984 512 320 512 320-192 320-512 320zM512 192c-280 0-432 256-432 256s152 256 432 256 432-256 432-256-152-256-432-256z" />
</font>
</defs>
</svg>
